<svg xmlns="http://www.w3.org/2000/svg" width="1179" height="4720" viewBox="0 0 1179 4720"><defs>
    <linearGradient id="sky" x1="0" y1="0" x2="0" y2="1"><stop offset="0.0" stop-color="#fffaf2"></stop><stop offset="0.42" stop-color="#fff2e2"></stop><stop offset="0.7" stop-color="#fdeada"></stop><stop offset="1.0" stop-color="#fbf2e9"></stop></linearGradient>
    <radialGradient id="halo" cx="50%" cy="50%">
      <stop offset="0%" stop-color="#ffcf9a" stop-opacity="0.55"></stop>
      <stop offset="100%" stop-color="#ffcf9a" stop-opacity="0"></stop>
    </radialGradient>
    <linearGradient id="haze" x1="0" y1="0" x2="0" y2="1">
      <stop offset="0%" stop-color="#fbf2e9" stop-opacity="0"></stop>
      <stop offset="100%" stop-color="#fbf2e9" stop-opacity="0.9"></stop>
    </linearGradient>
    <linearGradient id="lane" x1="0" y1="0" x2="1" y2="0">
      <stop offset="0%" stop-color="#fbf2e9" stop-opacity="0"></stop>
      <stop offset="20%" stop-color="#fbf2e9" stop-opacity="0.30"></stop>
      <stop offset="38%" stop-color="#fbf2e9" stop-opacity="0.72"></stop>
      <stop offset="62%" stop-color="#fbf2e9" stop-opacity="0.72"></stop>
      <stop offset="80%" stop-color="#fbf2e9" stop-opacity="0.30"></stop>
      <stop offset="100%" stop-color="#fbf2e9" stop-opacity="0"></stop>
    </linearGradient>
    <linearGradient id="shelf-l" x1="0" y1="0" x2="1" y2="0">
      <stop offset="0%" stop-color="#cf9a74" stop-opacity="0.34"></stop>
      <stop offset="55%" stop-color="#cf9a74" stop-opacity="0.15"></stop>
      <stop offset="100%" stop-color="#cf9a74" stop-opacity="0"></stop>
    </linearGradient>
    <linearGradient id="shelf-r" x1="1" y1="0" x2="0" y2="0">
      <stop offset="0%" stop-color="#cf9a74" stop-opacity="0.34"></stop>
      <stop offset="55%" stop-color="#cf9a74" stop-opacity="0.15"></stop>
      <stop offset="100%" stop-color="#cf9a74" stop-opacity="0"></stop>
    </linearGradient>
    <linearGradient id="seam" x1="0" y1="0" x2="0" y2="1">
      <stop offset="0%" stop-color="#fbf2e9" stop-opacity="1"></stop>
      <stop offset="4%" stop-color="#fbf2e9" stop-opacity="0"></stop>
      <stop offset="96%" stop-color="#fbf2e9" stop-opacity="0"></stop>
      <stop offset="100%" stop-color="#fbf2e9" stop-opacity="1"></stop>
    </linearGradient>
    </defs><rect width="1179" height="4720" fill="#fbf2e9"></rect><rect x="660" y="413" width="519" height="7" fill="url(#shelf-r)"></rect><g opacity="0.55"><rect x="660" y="420" width="519" height="64" fill="url(#shelf-r)"></rect></g><rect x="0" y="873" width="472" height="7" fill="url(#shelf-l)"></rect><g opacity="0.55"><rect x="0" y="880" width="472" height="64" fill="url(#shelf-l)"></rect></g><rect x="637" y="1333" width="542" height="7" fill="url(#shelf-r)"></rect><g opacity="0.55"><rect x="637" y="1340" width="542" height="64" fill="url(#shelf-r)"></rect></g><rect x="0" y="1793" width="448" height="7" fill="url(#shelf-l)"></rect><g opacity="0.55"><rect x="0" y="1800" width="448" height="64" fill="url(#shelf-l)"></rect></g><rect x="684" y="2253" width="495" height="7" fill="url(#shelf-r)"></rect><g opacity="0.55"><rect x="684" y="2260" width="495" height="64" fill="url(#shelf-r)"></rect></g><rect x="0" y="2713" width="424" height="7" fill="url(#shelf-l)"></rect><g opacity="0.55"><rect x="0" y="2720" width="424" height="64" fill="url(#shelf-l)"></rect></g><rect x="660" y="3173" width="519" height="7" fill="url(#shelf-r)"></rect><g opacity="0.55"><rect x="660" y="3180" width="519" height="64" fill="url(#shelf-r)"></rect></g><rect x="0" y="3633" width="483" height="7" fill="url(#shelf-l)"></rect><g opacity="0.55"><rect x="0" y="3640" width="483" height="64" fill="url(#shelf-l)"></rect></g><rect x="731" y="4093" width="448" height="7" fill="url(#shelf-r)"></rect><g opacity="0.55"><rect x="731" y="4100" width="448" height="64" fill="url(#shelf-r)"></rect></g><rect x="0" y="4553" width="507" height="7" fill="url(#shelf-l)"></rect><g opacity="0.55"><rect x="0" y="4560" width="507" height="64" fill="url(#shelf-l)"></rect></g><g opacity="0.55"><rect x="731" y="256" width="121" height="163" fill="#e3b593"></rect><rect x="785" y="213" width="19" height="32" fill="#e3b593"></rect><rect x="750" y="353" width="24" height="20" fill="#fffaf0" opacity="0.91"></rect><rect x="779" y="353" width="24" height="20" fill="#fffaf0" opacity="0.39"></rect><rect x="779" y="379" width="24" height="20" fill="#fffaf0" opacity="0.49"></rect><rect x="808" y="379" width="24" height="20" fill="#fffaf0" opacity="0.62"></rect><rect x="857" y="252" width="103" height="167" fill="#e3b593"></rect><path d="M853,252 L909,217 L965,252 Z" fill="#e3b593"></path><rect x="905" y="208" width="12" height="34" fill="#e3b593"></rect><rect x="921" y="202" width="15" height="40" fill="#e3b593"></rect><rect x="873" y="366" width="16" height="30" fill="#fffaf0" opacity="0.45"></rect><rect x="911" y="327" width="16" height="30" fill="#fffaf0" opacity="0.38"></rect><rect x="911" y="366" width="16" height="30" fill="#fffaf0" opacity="0.38"></rect><rect x="976" y="234" width="105" height="185" fill="#e3b593"></rect><rect x="991" y="362" width="16" height="33" fill="#fffaf0" opacity="0.50"></rect><rect x="1011" y="319" width="16" height="33" fill="#fffaf0" opacity="0.61"></rect><rect x="1030" y="362" width="16" height="33" fill="#fffaf0" opacity="0.46"></rect><rect x="1094" y="282" width="117" height="137" fill="#e3b593"></rect><path d="M1089,282 L1153,242 L1216,282 Z" fill="#e3b593"></path><rect x="1141" y="250" width="13" height="22" fill="#e3b593"></rect><rect x="1114" y="234" width="19" height="37" fill="#e3b593"></rect><rect x="1169" y="373" width="24" height="24" fill="#fffaf0" opacity="0.80"></rect><rect x="1208" y="309" width="136" height="110" fill="#e3b593"></rect><path d="M1203,309 L1276,276 L1350,309 Z" fill="#e3b593"></path><rect x="1228" y="352" width="21" height="13" fill="#fffaf0" opacity="0.68"></rect><rect x="1253" y="352" width="21" height="13" fill="#fffaf0" opacity="0.64"></rect><rect x="1253" y="388" width="21" height="13" fill="#fffaf0" opacity="0.78"></rect><rect x="1278" y="352" width="21" height="13" fill="#fffaf0" opacity="0.72"></rect><rect x="1278" y="370" width="21" height="13" fill="#fffaf0" opacity="0.63"></rect><rect x="1278" y="388" width="21" height="13" fill="#fffaf0" opacity="0.85"></rect><rect x="1303" y="370" width="21" height="13" fill="#fffaf0" opacity="0.56"></rect></g><g opacity="0.5"><path d="M839,420 L858,420 L853,405 L844,405 Z" fill="#cf9a74"></path><rect x="846" y="274" width="5.3" height="132" fill="#cf9a74"></rect><rect x="840" y="273" width="17" height="4.0" rx="1.8" fill="#cf9a74"></rect><circle cx="848" cy="261" r="9.7" fill="#cf9a74"></circle><path d="M843,253 L848,245 L854,253 Z" fill="#cf9a74"></path></g><g opacity="0.6"><path d="M59,880 q4.0,-112 28,-196 l14,4.0 q-22,86 -27,192 Z" fill="#d3ab86"></path><path d="M104,684 Q42,645 -6.3,668 Q42,697 104,684 Z" fill="#cfbe94"></path><path d="M104,684 Q54,605 15,597 Q54,657 104,684 Z" fill="#cfbe94"></path><path d="M104,684 Q91,599 80,586 Q91,651 104,684 Z" fill="#cfbe94"></path><path d="M104,684 Q135,591 159,572 Q135,643 104,684 Z" fill="#cfbe94"></path><path d="M104,684 Q162,628 207,638 Q162,680 104,684 Z" fill="#cfbe94"></path><path d="M104,684 Q156,665 197,703 Q156,717 104,684 Z" fill="#cfbe94"></path><circle cx="104" cy="684" r="11" fill="#d3ab86"></circle><path d="M239,880 q3.1,-87 21,-152 l10,3.1 q-17,67 -21,149 Z" fill="#d3ab86"></path><path d="M274,727 Q225,696 187,715 Q225,737 274,727 Z" fill="#cfbe94"></path><path d="M274,727 Q235,666 204,660 Q235,706 274,727 Z" fill="#cfbe94"></path><path d="M274,727 Q263,661 255,651 Q263,701 274,727 Z" fill="#cfbe94"></path><path d="M274,727 Q297,655 316,640 Q297,695 274,727 Z" fill="#cfbe94"></path><path d="M274,727 Q318,683 354,691 Q318,724 274,727 Z" fill="#cfbe94"></path><path d="M274,727 Q314,712 346,742 Q314,752 274,727 Z" fill="#cfbe94"></path><circle cx="274" cy="727" r="8.6" fill="#d3ab86"></circle></g><g opacity="0.5"><ellipse cx="294" cy="880" rx="80" ry="18" fill="#cf9a74"></ellipse><ellipse cx="294" cy="875" rx="69" ry="13" fill="#f0cdb0"></ellipse><rect x="285" y="816" width="18" height="56" fill="#cf9a74"></rect><ellipse cx="294" cy="816" rx="38" ry="10" fill="#cf9a74"></ellipse><rect x="289" y="786" width="10" height="24" fill="#cf9a74"></rect><path d="M294,786 q-33,-21 -44,24" fill="none" stroke="#f0cdb0" stroke-width="5.0" stroke-linecap="round" opacity="0.8"></path><path d="M294,786 q0.0,-21 0.0,24" fill="none" stroke="#f0cdb0" stroke-width="5.0" stroke-linecap="round" opacity="0.8"></path><path d="M294,786 q33,-21 44,24" fill="none" stroke="#f0cdb0" stroke-width="5.0" stroke-linecap="round" opacity="0.8"></path></g><g opacity="0.32"><path fill-rule="evenodd" d="M959,1340 L959,1230 L1162,1230 L1162,1340 Z M1038,1340 L1038,1274 A22,22 0 0 1 1084,1274 L1084,1340 Z M1000,1340 L1000,1286 A18,18 0 0 1 1036,1286 L1036,1340 Z M1085,1340 L1085,1286 A18,18 0 0 1 1121,1286 L1121,1340 Z M967,1340 l0,-49 l22,0 l0,49 Z M1133,1340 l0,-49 l22,0 l0,49 Z" fill="#d9a883"></path><rect x="951" y="1218" width="218" height="11" fill="#d9a883"></rect><rect x="1012" y="1195" width="97" height="22" fill="#d9a883"></rect><circle cx="1061" cy="1187" r="6.6" fill="#d9a883"></circle><circle cx="992" cy="1210" r="4.8" fill="#d9a883"></circle><circle cx="1129" cy="1210" r="4.8" fill="#d9a883"></circle></g><g opacity="0.5"><rect x="731" y="1296" width="488" height="6.6" fill="#cf9a74"></rect><rect x="731" y="1302" width="5.4" height="37" fill="#cf9a74"></rect><rect x="751" y="1302" width="5.4" height="37" fill="#cf9a74"></rect><rect x="771" y="1302" width="5.4" height="37" fill="#cf9a74"></rect><rect x="792" y="1302" width="5.4" height="37" fill="#cf9a74"></rect><rect x="812" y="1302" width="5.4" height="37" fill="#cf9a74"></rect><rect x="833" y="1302" width="5.4" height="37" fill="#cf9a74"></rect><rect x="853" y="1302" width="5.4" height="37" fill="#cf9a74"></rect><rect x="873" y="1302" width="5.4" height="37" fill="#cf9a74"></rect><rect x="894" y="1302" width="5.4" height="37" fill="#cf9a74"></rect><rect x="914" y="1302" width="5.4" height="37" fill="#cf9a74"></rect><rect x="935" y="1302" width="5.4" height="37" fill="#cf9a74"></rect><rect x="955" y="1302" width="5.4" height="37" fill="#cf9a74"></rect><rect x="975" y="1302" width="5.4" height="37" fill="#cf9a74"></rect><rect x="996" y="1302" width="5.4" height="37" fill="#cf9a74"></rect><rect x="1016" y="1302" width="5.4" height="37" fill="#cf9a74"></rect><rect x="1037" y="1302" width="5.4" height="37" fill="#cf9a74"></rect><rect x="1057" y="1302" width="5.4" height="37" fill="#cf9a74"></rect><rect x="1077" y="1302" width="5.4" height="37" fill="#cf9a74"></rect><rect x="1098" y="1302" width="5.4" height="37" fill="#cf9a74"></rect><rect x="1118" y="1302" width="5.4" height="37" fill="#cf9a74"></rect><rect x="1139" y="1302" width="5.4" height="37" fill="#cf9a74"></rect><rect x="1159" y="1302" width="5.4" height="37" fill="#cf9a74"></rect><rect x="1179" y="1302" width="5.4" height="37" fill="#cf9a74"></rect><rect x="1200" y="1302" width="5.4" height="37" fill="#cf9a74"></rect></g><g opacity="0.55"><rect x="-16" y="1644" width="246" height="155" fill="#e3b593"></rect><rect x="17" y="1699" width="52" height="30" fill="#fffaf0" opacity="0.76"></rect><rect x="79" y="1699" width="52" height="30" fill="#fffaf0" opacity="0.48"></rect><path d="M-31,1639 L243,1639 L229,1683 L-16,1683 Z" fill="#cf6a45"></path><circle cx="0.7" cy="1683" r="17" fill="#cf6a45"></circle><circle cx="35" cy="1683" r="17" fill="#cf6a45"></circle><circle cx="71" cy="1683" r="17" fill="#cf6a45"></circle><circle cx="106" cy="1683" r="17" fill="#cf6a45"></circle><circle cx="141" cy="1683" r="17" fill="#cf6a45"></circle><circle cx="176" cy="1683" r="17" fill="#cf6a45"></circle><circle cx="211" cy="1683" r="17" fill="#cf6a45"></circle><rect x="-7.0" y="1683" width="5.7" height="116" fill="#e3b593"></rect><rect x="219" y="1683" width="5.7" height="116" fill="#e3b593"></rect><ellipse cx="130" cy="1739" rx="32" ry="7.4" fill="#e3b593"></ellipse><rect x="127" y="1739" width="6.6" height="60" fill="#e3b593"></rect><rect x="53" y="1750" width="36" height="6.6" fill="#e3b593"></rect><rect x="53" y="1685" width="6.6" height="36" fill="#e3b593"></rect><rect x="55" y="1757" width="4.9" height="42" fill="#e3b593"></rect><rect x="83" y="1757" width="4.9" height="42" fill="#e3b593"></rect><rect x="173" y="1750" width="36" height="6.6" fill="#e3b593"></rect><rect x="173" y="1685" width="6.6" height="36" fill="#e3b593"></rect><rect x="175" y="1757" width="4.9" height="42" fill="#e3b593"></rect><rect x="202" y="1757" width="4.9" height="42" fill="#e3b593"></rect></g><g opacity="0.75"><path d="M290,1770 L323,1770 L318,1800 L294,1800 Z" fill="#cf9a74"></path><circle cx="296" cy="1759" r="9.8" fill="#cf6a45"></circle><circle cx="314" cy="1756" r="10" fill="#cf6a45"></circle><circle cx="305" cy="1747" r="9.0" fill="#cf6a45"></circle><path d="M327,1776 L354,1776 L350,1800 L331,1800 Z" fill="#cf9a74"></path><circle cx="332" cy="1767" r="7.8" fill="#cf6a45"></circle><circle cx="347" cy="1765" r="8.4" fill="#cf6a45"></circle><circle cx="339" cy="1758" r="7.2" fill="#cf6a45"></circle></g><g opacity="0.6"><path d="M1086,2260 q3.7,-103 25,-180 l12,3.7 q-20,79 -24,176 Z" fill="#d3ab86"></path><path d="M1127,2079 Q1070,2044 1025,2065 Q1070,2091 1127,2079 Z" fill="#cfbe94"></path><path d="M1127,2079 Q1081,2007 1045,2000 Q1081,2055 1127,2079 Z" fill="#cfbe94"></path><path d="M1127,2079 Q1115,2002 1105,1990 Q1115,2049 1127,2079 Z" fill="#cfbe94"></path><path d="M1127,2079 Q1155,1994 1177,1977 Q1155,2042 1127,2079 Z" fill="#cfbe94"></path><path d="M1127,2079 Q1180,2028 1222,2037 Q1180,2076 1127,2079 Z" fill="#cfbe94"></path><path d="M1127,2079 Q1175,2062 1212,2097 Q1175,2110 1127,2079 Z" fill="#cfbe94"></path><circle cx="1127" cy="2079" r="10" fill="#d3ab86"></circle></g><g opacity="0.55"><rect x="801" y="2146" width="99" height="113" fill="#e3b593"></rect><path d="M797,2146 L851,2112 L904,2146 Z" fill="#e3b593"></path><rect x="816" y="2100" width="19" height="36" fill="#e3b593"></rect><rect x="860" y="2116" width="20" height="20" fill="#e3b593"></rect><rect x="817" y="2209" width="20" height="14" fill="#fffaf0" opacity="0.82"></rect><rect x="817" y="2227" width="20" height="14" fill="#fffaf0" opacity="0.77"></rect><rect x="841" y="2191" width="20" height="14" fill="#fffaf0" opacity="0.51"></rect><rect x="865" y="2227" width="20" height="14" fill="#fffaf0" opacity="0.56"></rect><rect x="897" y="2122" width="107" height="137" fill="#e3b593"></rect><path d="M893,2122 L951,2088 L1009,2122 Z" fill="#e3b593"></path><rect x="933" y="2081" width="18" height="31" fill="#e3b593"></rect><rect x="930" y="2092" width="14" height="20" fill="#e3b593"></rect><rect x="940" y="2213" width="22" height="24" fill="#fffaf0" opacity="0.72"></rect><rect x="966" y="2213" width="22" height="24" fill="#fffaf0" opacity="0.68"></rect><rect x="1013" y="2121" width="125" height="138" fill="#e3b593"></rect><rect x="1063" y="2088" width="15" height="23" fill="#e3b593"></rect><rect x="1032" y="2181" width="19" height="25" fill="#fffaf0" opacity="0.64"></rect><rect x="1078" y="2213" width="19" height="25" fill="#fffaf0" opacity="0.57"></rect><rect x="1101" y="2213" width="19" height="25" fill="#fffaf0" opacity="0.69"></rect><rect x="1140" y="2152" width="128" height="107" fill="#e3b593"></rect><rect x="1215" y="2103" width="12" height="39" fill="#e3b593"></rect><rect x="1218" y="2100" width="16" height="42" fill="#e3b593"></rect><rect x="1160" y="2211" width="26" height="13" fill="#fffaf0" opacity="0.57"></rect><rect x="1160" y="2228" width="26" height="13" fill="#fffaf0" opacity="0.88"></rect><rect x="1191" y="2194" width="26" height="13" fill="#fffaf0" opacity="0.51"></rect><rect x="1191" y="2211" width="26" height="13" fill="#fffaf0" opacity="0.87"></rect><rect x="1191" y="2228" width="26" height="13" fill="#fffaf0" opacity="0.87"></rect><rect x="1222" y="2194" width="26" height="13" fill="#fffaf0" opacity="0.76"></rect><rect x="1222" y="2211" width="26" height="13" fill="#fffaf0" opacity="0.70"></rect><rect x="1222" y="2228" width="26" height="13" fill="#fffaf0" opacity="0.47"></rect></g><g opacity="0.5"><rect x="847" y="2228" width="96" height="7.4" rx="3.7" fill="#cf9a74"></rect><rect x="847" y="2203" width="96" height="6.7" rx="3.0" fill="#cf9a74"></rect><rect x="847" y="2190" width="96" height="6.7" rx="3.0" fill="#cf9a74"></rect><rect x="851" y="2189" width="7.4" height="71" fill="#cf9a74"></rect><rect x="932" y="2189" width="7.4" height="71" fill="#cf9a74"></rect></g><g opacity="0.5"><rect x="-40" y="2677" width="370" height="6.4" fill="#cf9a74"></rect><rect x="-40" y="2684" width="5.2" height="36" fill="#cf9a74"></rect><rect x="-20" y="2684" width="5.2" height="36" fill="#cf9a74"></rect><rect x="-0.6" y="2684" width="5.2" height="36" fill="#cf9a74"></rect><rect x="19" y="2684" width="5.2" height="36" fill="#cf9a74"></rect><rect x="38" y="2684" width="5.2" height="36" fill="#cf9a74"></rect><rect x="58" y="2684" width="5.2" height="36" fill="#cf9a74"></rect><rect x="78" y="2684" width="5.2" height="36" fill="#cf9a74"></rect><rect x="98" y="2684" width="5.2" height="36" fill="#cf9a74"></rect><rect x="117" y="2684" width="5.2" height="36" fill="#cf9a74"></rect><rect x="137" y="2684" width="5.2" height="36" fill="#cf9a74"></rect><rect x="157" y="2684" width="5.2" height="36" fill="#cf9a74"></rect><rect x="176" y="2684" width="5.2" height="36" fill="#cf9a74"></rect><rect x="196" y="2684" width="5.2" height="36" fill="#cf9a74"></rect><rect x="216" y="2684" width="5.2" height="36" fill="#cf9a74"></rect><rect x="236" y="2684" width="5.2" height="36" fill="#cf9a74"></rect><rect x="255" y="2684" width="5.2" height="36" fill="#cf9a74"></rect><rect x="275" y="2684" width="5.2" height="36" fill="#cf9a74"></rect><rect x="295" y="2684" width="5.2" height="36" fill="#cf9a74"></rect><rect x="315" y="2684" width="5.2" height="36" fill="#cf9a74"></rect></g><g opacity="0.6"><path d="M51,2720 q2.8,-78 19,-137 l9.8,2.8 q-15,60 -18,134 Z" fill="#d3ab86"></path><path d="M82,2582 Q39,2555 5.0,2571 Q39,2592 82,2582 Z" fill="#cfbe94"></path><path d="M82,2582 Q47,2528 20,2522 Q47,2564 82,2582 Z" fill="#cfbe94"></path><path d="M82,2582 Q73,2523 65,2514 Q73,2560 82,2582 Z" fill="#cfbe94"></path><path d="M82,2582 Q104,2518 120,2504 Q104,2554 82,2582 Z" fill="#cfbe94"></path><path d="M82,2582 Q122,2543 154,2550 Q122,2580 82,2582 Z" fill="#cfbe94"></path><path d="M82,2582 Q118,2569 147,2596 Q118,2605 82,2582 Z" fill="#cfbe94"></path><circle cx="82" cy="2582" r="7.7" fill="#d3ab86"></circle></g><g opacity="0.32"><path d="M993,3180 L993,3099 Q999,3045 1061,3045 Q1122,3045 1128,3099 L1128,3180 Z" fill="#d9a883"></path><rect x="1004" y="3117" width="16" height="15" fill="#fffaf0" opacity="0.74"></rect><rect x="1004" y="3157" width="16" height="15" fill="#fffaf0" opacity="0.36"></rect><rect x="1024" y="3117" width="16" height="15" fill="#fffaf0" opacity="0.51"></rect><rect x="1062" y="3117" width="16" height="15" fill="#fffaf0" opacity="0.61"></rect><rect x="1062" y="3137" width="16" height="15" fill="#fffaf0" opacity="0.89"></rect><rect x="1062" y="3157" width="16" height="15" fill="#fffaf0" opacity="0.84"></rect><rect x="1081" y="3117" width="16" height="15" fill="#fffaf0" opacity="0.76"></rect><rect x="1081" y="3137" width="16" height="15" fill="#fffaf0" opacity="0.59"></rect><rect x="1101" y="3117" width="16" height="15" fill="#fffaf0" opacity="0.39"></rect><rect x="991" y="3091" width="139" height="5.5" fill="#d9a883"></rect><rect x="1007" y="3069" width="4.6" height="24" fill="#d9a883"></rect><rect x="1020" y="3069" width="4.6" height="24" fill="#d9a883"></rect><rect x="1034" y="3069" width="4.6" height="24" fill="#d9a883"></rect><rect x="1047" y="3069" width="4.6" height="24" fill="#d9a883"></rect><rect x="1061" y="3069" width="4.6" height="24" fill="#d9a883"></rect><rect x="1074" y="3069" width="4.6" height="24" fill="#d9a883"></rect><rect x="1088" y="3069" width="4.6" height="24" fill="#d9a883"></rect><rect x="1101" y="3069" width="4.6" height="24" fill="#d9a883"></rect><rect x="1114" y="3069" width="4.6" height="24" fill="#d9a883"></rect><rect x="1002" y="3055" width="118" height="5.9" fill="#d9a883"></rect><rect x="1035" y="3037" width="51" height="18" fill="#d9a883"></rect><path d="M1035,3037 A25,23 0 0 1 1086,3037 Z" fill="#d9a883"></path><rect x="1055" y="3003" width="11" height="10" fill="#d9a883"></rect><circle cx="1061" cy="2992" r="2.9" fill="#d9a883"></circle><path d="M1058,3003 L1059,2994 L1062,2994 L1064,3003 Z" fill="#d9a883"></path><path d="M1062,2995 q7.6,-3.4 10,-11" fill="none" stroke="#d9a883" stroke-width="2.1" stroke-linecap="round"></path><path d="M1059,2996 q-8.4,-6.3 -6.7,-16 q6.7,6.7 7.6,14 Z" fill="#d9a883"></path></g><g opacity="0.55"><rect x="778" y="3038" width="88" height="141" fill="#e3b593"></rect><path d="M774,3038 L822,3001 L870,3038 Z" fill="#e3b593"></path><rect x="807" y="2993" width="20" height="35" fill="#e3b593"></rect><rect x="791" y="3133" width="13" height="25" fill="#fffaf0" opacity="0.56"></rect><rect x="873" y="3053" width="123" height="126" fill="#e3b593"></rect><rect x="960" y="3011" width="17" height="31" fill="#e3b593"></rect><rect x="911" y="3020" width="17" height="23" fill="#e3b593"></rect><rect x="922" y="3136" width="25" height="23" fill="#fffaf0" opacity="0.67"></rect><rect x="1004" y="3039" width="95" height="141" fill="#e3b593"></rect><path d="M1000,3039 L1051,2996 L1103,3039 Z" fill="#e3b593"></path><rect x="1044" y="2996" width="17" height="32" fill="#e3b593"></rect><rect x="1032" y="3002" width="20" height="26" fill="#e3b593"></rect><rect x="1019" y="3097" width="19" height="17" fill="#fffaf0" opacity="0.58"></rect><rect x="1019" y="3120" width="19" height="17" fill="#fffaf0" opacity="0.72"></rect><rect x="1093" y="3078" width="114" height="101" fill="#e3b593"></rect><path d="M1089,3078 L1151,3039 L1212,3078 Z" fill="#e3b593"></path><rect x="1148" y="3037" width="12" height="31" fill="#e3b593"></rect><rect x="1139" y="3116" width="23" height="12" fill="#fffaf0" opacity="0.35"></rect><rect x="1226" y="3054" width="107" height="125" fill="#e3b593"></rect><path d="M1221,3054 L1279,3022 L1338,3054 Z" fill="#e3b593"></path><rect x="1288" y="3008" width="13" height="36" fill="#e3b593"></rect><rect x="1242" y="3145" width="16" height="15" fill="#fffaf0" opacity="0.42"></rect><rect x="1261" y="3125" width="16" height="15" fill="#fffaf0" opacity="0.75"></rect><rect x="1301" y="3105" width="16" height="15" fill="#fffaf0" opacity="0.65"></rect><rect x="1301" y="3125" width="16" height="15" fill="#fffaf0" opacity="0.46"></rect></g><g opacity="0.5"><path d="M827,3180 L846,3180 L841,3165 L832,3165 Z" fill="#cf9a74"></path><rect x="834" y="3041" width="5.0" height="126" fill="#cf9a74"></rect><rect x="828" y="3039" width="16" height="3.8" rx="1.7" fill="#cf9a74"></rect><circle cx="837" cy="3028" r="9.2" fill="#cf9a74"></circle><path d="M832,3021 L837,3013 L842,3021 Z" fill="#cf9a74"></path></g><g opacity="0.55"><rect x="-70" y="3502" width="101" height="137" fill="#e3b593"></rect><path d="M-74,3502 L-19,3458 L35,3502 Z" fill="#e3b593"></path><rect x="-18" y="3603" width="15" height="17" fill="#fffaf0" opacity="0.89"></rect><rect x="0.5" y="3603" width="15" height="17" fill="#fffaf0" opacity="0.67"></rect><rect x="48" y="3498" width="131" height="141" fill="#e3b593"></rect><path d="M43,3498 L114,3460 L184,3498 Z" fill="#e3b593"></path><rect x="100" y="3452" width="14" height="36" fill="#e3b593"></rect><rect x="68" y="3560" width="26" height="25" fill="#fffaf0" opacity="0.68"></rect><rect x="100" y="3560" width="26" height="25" fill="#fffaf0" opacity="0.52"></rect><rect x="100" y="3593" width="26" height="25" fill="#fffaf0" opacity="0.56"></rect><rect x="186" y="3489" width="88" height="150" fill="#e3b593"></rect><rect x="234" y="3440" width="15" height="38" fill="#e3b593"></rect><rect x="200" y="3590" width="18" height="27" fill="#fffaf0" opacity="0.68"></rect><rect x="221" y="3555" width="18" height="27" fill="#fffaf0" opacity="0.37"></rect><rect x="221" y="3590" width="18" height="27" fill="#fffaf0" opacity="0.95"></rect></g><g opacity="0.75"><path d="M314,3612 L345,3612 L341,3640 L318,3640 Z" fill="#cf9a74"></path><circle cx="320" cy="3602" r="9.1" fill="#cf6a45"></circle><circle cx="337" cy="3599" r="9.8" fill="#cf6a45"></circle><circle cx="328" cy="3591" r="8.4" fill="#cf6a45"></circle><path d="M350,3617 L374,3617 L371,3640 L353,3640 Z" fill="#cf9a74"></path><circle cx="354" cy="3609" r="7.3" fill="#cf6a45"></circle><circle cx="367" cy="3607" r="7.8" fill="#cf6a45"></circle><circle cx="361" cy="3600" r="6.7" fill="#cf6a45"></circle></g><g opacity="0.6"><path d="M1028,4100 q3.4,-95 23,-166 l11,3.4 q-18,73 -22,163 Z" fill="#d3ab86"></path><path d="M1066,3933 Q1013,3900 972,3920 Q1013,3944 1066,3933 Z" fill="#cfbe94"></path><path d="M1066,3933 Q1024,3867 990,3860 Q1024,3911 1066,3933 Z" fill="#cfbe94"></path><path d="M1066,3933 Q1054,3861 1045,3850 Q1054,3905 1066,3933 Z" fill="#cfbe94"></path><path d="M1066,3933 Q1092,3855 1112,3838 Q1092,3899 1066,3933 Z" fill="#cfbe94"></path><path d="M1066,3933 Q1115,3886 1153,3894 Q1115,3930 1066,3933 Z" fill="#cfbe94"></path><path d="M1066,3933 Q1110,3917 1144,3950 Q1110,3961 1066,3933 Z" fill="#cfbe94"></path><circle cx="1066" cy="3933" r="9.3" fill="#d3ab86"></circle></g><g opacity="0.5"><ellipse cx="848" cy="4100" rx="69" ry="16" fill="#cf9a74"></ellipse><ellipse cx="848" cy="4096" rx="59" ry="11" fill="#f0cdb0"></ellipse><rect x="840" y="4045" width="16" height="48" fill="#cf9a74"></rect><ellipse cx="848" cy="4045" rx="33" ry="8.7" fill="#cf9a74"></ellipse><rect x="844" y="4019" width="8.7" height="21" fill="#cf9a74"></rect><path d="M848,4019 q-28,-18 -38,21" fill="none" stroke="#f0cdb0" stroke-width="4.3" stroke-linecap="round" opacity="0.8"></path><path d="M848,4019 q0.0,-18 0.0,21" fill="none" stroke="#f0cdb0" stroke-width="4.3" stroke-linecap="round" opacity="0.8"></path><path d="M848,4019 q28,-18 38,21" fill="none" stroke="#f0cdb0" stroke-width="4.3" stroke-linecap="round" opacity="0.8"></path></g><g opacity="0.6"><path d="M84,4560 q3.6,-100 25,-176 l12,3.6 q-19,77 -24,172 Z" fill="#d3ab86"></path><path d="M124,4383 Q69,4348 25,4369 Q69,4395 124,4383 Z" fill="#cfbe94"></path><path d="M124,4383 Q80,4313 44,4306 Q80,4360 124,4383 Z" fill="#cfbe94"></path><path d="M124,4383 Q112,4307 103,4296 Q112,4354 124,4383 Z" fill="#cfbe94"></path><path d="M124,4383 Q152,4300 173,4283 Q152,4347 124,4383 Z" fill="#cfbe94"></path><path d="M124,4383 Q176,4333 217,4342 Q176,4380 124,4383 Z" fill="#cfbe94"></path><path d="M124,4383 Q171,4366 208,4401 Q171,4413 124,4383 Z" fill="#cfbe94"></path><circle cx="124" cy="4383" r="9.9" fill="#d3ab86"></circle></g><g opacity="0.5"><rect x="246" y="4528" width="96" height="7.4" rx="3.7" fill="#cf9a74"></rect><rect x="246" y="4503" width="96" height="6.7" rx="3.0" fill="#cf9a74"></rect><rect x="246" y="4490" width="96" height="6.7" rx="3.0" fill="#cf9a74"></rect><rect x="250" y="4489" width="7.4" height="71" fill="#cf9a74"></rect><rect x="331" y="4489" width="7.4" height="71" fill="#cf9a74"></rect></g><g opacity="0.5"><path d="M14,4560 L32,4560 L27,4545 L19,4545 Z" fill="#cf9a74"></path><rect x="21" y="4421" width="5.0" height="126" fill="#cf9a74"></rect><rect x="15" y="4419" width="16" height="3.8" rx="1.7" fill="#cf9a74"></rect><circle cx="23" cy="4408" r="9.2" fill="#cf9a74"></circle><path d="M18,4401 L23,4393 L28,4401 Z" fill="#cf9a74"></path></g><rect width="1179" height="4720" fill="url(#lane)"></rect><rect width="1179" height="4720" fill="url(#seam)"></rect><rect width="1179" height="3" fill="#fbf2e9"></rect><rect y="4717" width="1179" height="3" fill="#fbf2e9"></rect></svg>